<?xml version="1.0" standalone="no"?>
<!DOCTYPE svg PUBLIC "-//W3C//DTD SVG 20010904//EN"
 "http://www.w3.org/TR/2001/REC-SVG-20010904/DTD/svg10.dtd">
<svg version="1.0" xmlns="http://www.w3.org/2000/svg"
 width="156.000000pt" height="156.000000pt" viewBox="0 0 156.000000 156.000000"
 preserveAspectRatio="xMidYMid meet">
<metadata>
Created by potrace 1.14, written by Peter Selinger 2001-2017
</metadata>
<g transform="translate(0.000000,156.000000) scale(0.100000,-0.100000)"
fill="#000000" stroke="none">
<path d="M267 1305 c-10 -9 -18 -11 -22 -5 -9 15 -26 1 -23 -18 2 -9 -3 -17
-9 -18 -7 -1 -15 -2 -18 -3 -3 0 -1 -10 5 -21 7 -14 7 -20 0 -20 -13 0 -13
-47 0 -55 6 -4 10 -12 9 -18 -3 -26 2 -36 15 -31 12 4 13 -2 6 -32 -9 -40 4
-75 26 -67 6 2 15 0 18 -6 4 -6 13 -8 21 -4 10 3 15 -2 16 -16 2 -28 3 -34 10
-46 4 -5 5 -18 4 -27 -2 -10 0 -18 4 -18 4 0 8 -10 8 -22 1 -13 7 -24 13 -26
5 -2 7 -8 4 -13 -3 -6 -1 -15 4 -22 5 -7 13 -23 17 -36 14 -45 75 -140 120
-184 35 -35 45 -53 46 -79 0 -18 2 -40 4 -48 14 -70 13 -80 -21 -136 -19 -31
-34 -60 -34 -64 0 -4 12 -10 26 -13 21 -4 35 3 62 30 31 31 34 40 36 99 1 35
6 67 10 71 4 5 19 -5 32 -22 27 -34 25 -66 -7 -119 -10 -17 -19 -34 -19 -37 0
-11 46 -16 68 -8 21 8 58 74 52 94 -1 6 -3 15 -5 20 -1 6 -7 23 -14 39 -10 26
-26 85 -37 143 -4 21 -3 21 41 8 25 -8 68 -15 95 -16 45 -2 53 -6 70 -35 11
-18 27 -35 36 -38 11 -4 12 -10 4 -25 -13 -25 8 -41 24 -19 14 19 36 12 36
-13 0 -23 18 -25 26 -4 4 8 12 15 20 15 11 0 11 -8 -3 -42 -9 -24 -20 -45 -23
-48 -4 -3 -15 -20 -25 -39 -12 -24 -14 -36 -6 -41 19 -11 72 1 79 19 3 9 9 19
14 22 5 3 11 19 14 35 5 32 24 94 32 108 6 11 23 -19 32 -60 5 -20 3 -37 -3
-43 -6 -6 -8 -11 -4 -11 4 0 -2 -18 -13 -40 -11 -22 -19 -40 -18 -41 2 -1 15
-2 30 -3 33 -3 49 5 52 28 1 10 7 21 12 24 12 8 13 92 2 92 -4 0 -5 7 -1 16 5
14 8 12 19 -7 7 -13 13 -33 14 -44 0 -32 20 -3 25 39 3 24 -1 48 -12 69 -15
27 -18 61 -18 227 -1 236 -8 268 -70 288 -22 8 -67 13 -100 12 -141 -5 -383
-3 -414 3 -42 8 -72 27 -122 80 -91 97 -109 115 -131 129 -20 13 -21 18 -11
41 10 21 9 28 -3 37 -11 10 -14 10 -14 -1 0 -12 -2 -12 -9 0 -5 7 -13 11 -19
7 -6 -3 -13 -2 -17 4 -4 6 -11 8 -16 4 -5 -3 -16 -1 -23 5 -11 9 -18 8 -29 -4z
m955 -647 c1 -22 -1 -67 -4 -95 -1 -7 -5 -13 -9 -13 -15 0 -17 33 -7 118 2 21
18 13 20 -10z"/>
</g>
</svg>
